<svg version="1.1" id="Layer_1" xmlns="http://www.w3.org/2000/svg" xmlns:xlink="http://www.w3.org/1999/xlink" x="0px" y="0px"
	 width="100%" viewBox="0 0 462 78" enable-background="new 0 0 462 78" xml:space="preserve">
<path fill="#FCFDFD" opacity="1.000000" stroke="none" 
	d="
M323.000000,79.000000 
	C223.979111,79.000000 124.958206,79.000000 25.552795,78.631477 
	C28.954105,70.045807 26.889997,64.751022 18.038055,59.561539 
	C18.382107,58.194271 18.693380,57.154114 19.315083,56.012955 
	C20.590683,55.130802 21.555857,54.349651 22.835634,53.424019 
	C29.943264,45.855049 28.115891,38.612820 18.003624,32.543171 
	C18.004904,31.510159 18.007439,30.821484 18.218208,29.982769 
	C18.613628,29.551842 18.800812,29.270954 19.342415,28.960196 
	C25.136616,26.149422 27.843321,21.770042 26.840324,15.654158 
	C25.938593,10.155741 22.136314,7.161709 16.996042,5.730763 
	C11.339321,4.156048 5.132299,7.791422 1.000000,15.000000 
	C1.000000,10.336294 1.000000,5.672588 1.000000,1.006662 
	C154.899323,1.004441 308.798645,1.004441 462.848999,1.004441 
	C462.848999,26.882048 462.848999,52.765270 462.848999,79.000000 
	C417.979706,79.000000 372.958527,79.000000 327.577271,78.655754 
	C328.200256,75.717026 329.183289,73.122551 330.298035,70.180389 
	C328.166107,70.180389 326.562714,70.180389 324.691650,70.180389 
	C324.115234,73.185570 323.557617,76.092781 323.000000,79.000000 
M52.262730,19.173788 
	C51.425503,16.507893 50.588272,13.841997 49.785107,11.284560 
	C47.069153,11.284560 44.659977,11.284560 42.274014,11.284560 
	C42.274014,19.987251 42.274014,28.396961 42.274014,37.035397 
	C43.967594,36.944538 45.367729,36.869423 47.143982,36.774128 
	C47.143982,30.929926 47.143982,25.441265 47.143982,19.952604 
	C47.360462,19.931286 47.576942,19.909966 47.793423,19.888647 
	C49.632771,25.622244 51.472115,31.355839 53.166283,36.636894 
	C57.229988,37.796833 58.942780,36.429996 59.852695,33.055950 
	C61.079086,28.508387 62.773289,24.086983 64.266731,19.611437 
	C64.568680,19.665905 64.870628,19.720371 65.172577,19.774839 
	C65.172577,25.463066 65.172577,31.151295 65.172577,36.744217 
	C67.028145,36.744217 68.451538,36.744217 69.954041,36.744217 
	C69.954041,28.091064 69.954041,19.699663 69.954041,11.426153 
	C64.631950,9.866048 61.752819,11.408581 60.631268,16.873188 
	C59.762566,21.105835 57.899094,25.134314 55.977520,30.703579 
	C54.528416,26.112986 53.550488,23.015022 52.262730,19.173788 
M189.515656,22.989573 
	C188.260818,19.058491 187.005997,15.127410 185.775314,11.271992 
	C183.094696,11.271992 180.684464,11.271992 178.264389,11.271992 
	C178.264389,19.961380 178.264389,28.370750 178.264389,36.718079 
	C179.936554,36.718079 181.334229,36.718079 183.118454,36.718079 
	C183.118454,30.946440 183.118454,25.448299 183.118454,19.950159 
	C183.342300,19.923571 183.566147,19.896984 183.789993,19.870396 
	C185.627945,25.603003 187.465881,31.335608 189.315277,37.103897 
	C191.419952,36.954411 193.025970,36.840343 194.460770,36.738438 
	C196.489883,30.774988 198.385269,25.204529 200.280670,19.634071 
	C200.569244,19.682602 200.857819,19.731134 201.146393,19.779667 
	C201.146393,25.457598 201.146393,31.135530 201.146393,36.755653 
	C203.006607,36.755653 204.429184,36.755653 205.965454,36.755653 
	C205.965454,28.114944 205.965454,19.723711 205.965454,11.410766 
	C200.697891,9.910519 197.774902,11.372485 196.641602,16.841892 
	C195.763229,21.081024 193.901016,25.116293 192.014893,30.577772 
	C190.980759,27.394320 190.388351,25.570679 189.515656,22.989573 
M363.706116,14.683769 
	C362.690338,8.875087 358.395874,11.600504 354.777405,10.911344 
	C354.777405,19.200369 354.667511,26.989429 354.925690,34.766281 
	C354.955719,35.671158 357.022980,36.508404 358.145782,37.377007 
	C358.542480,37.017311 358.939209,36.657616 359.335907,36.297924 
	C359.335907,30.947235 359.335907,25.596550 359.335907,20.245863 
	C359.720215,20.174335 360.104523,20.102808 360.488831,20.031282 
	C362.355042,25.687052 364.221283,31.342821 366.041840,36.860237 
	C367.988861,36.860237 369.464935,36.860237 371.115692,36.860237 
	C372.830078,31.969309 374.520721,27.146149 376.211365,22.322990 
	C376.564484,22.416731 376.917572,22.510471 377.270660,22.604212 
	C377.270660,27.370304 377.270660,32.136395 377.270660,37.072906 
	C379.393372,36.959187 381.131378,36.866081 382.648132,36.784824 
	C382.648132,27.887220 382.648132,19.486925 382.648132,11.227764 
	C379.987335,11.227764 377.686371,11.227764 375.394623,11.227764 
	C373.247620,17.514406 371.172516,23.590456 368.715851,30.783785 
	C366.865662,24.865074 365.397949,20.169874 363.706116,14.683769 
M375.999969,74.011414 
	C377.759216,74.011414 379.518494,74.011414 381.265564,74.011414 
	C381.265564,65.009857 381.265564,56.621490 381.265564,47.955521 
	C379.343414,48.046135 377.776367,48.120007 375.749634,48.215553 
	C375.749634,53.915852 375.749634,59.249615 375.749634,65.804482 
	C372.709839,60.692562 369.949188,56.897591 368.091187,52.702808 
	C365.956299,47.882713 362.727753,47.107025 358.259613,48.414478 
	C358.259613,56.975224 358.259613,65.385048 358.259613,73.728195 
	C359.949463,73.728195 361.351929,73.728195 363.159668,73.728195 
	C363.159668,67.775879 363.159668,62.095016 363.159668,55.163494 
	C364.845612,57.934792 365.813660,59.609463 366.861664,61.232506 
	C369.612000,65.491890 372.397156,69.728775 375.999969,74.011414 
M434.865936,25.482773 
	C434.865936,20.715673 434.865936,15.948574 434.865936,10.896695 
	C432.793243,11.054540 431.384064,11.161857 429.764465,11.285196 
	C429.764465,17.352041 429.764465,23.082899 429.764465,30.070484 
	C426.474640,24.548811 423.357941,20.252457 421.241760,15.509673 
	C419.013092,10.514844 415.638123,10.427710 411.343384,11.399315 
	C411.343384,19.984570 411.343384,28.245497 411.343384,36.643936 
	C413.068237,36.643936 414.578156,36.643936 416.280579,36.643936 
	C416.280579,30.539145 416.280579,24.799068 416.280579,17.825418 
	C419.524963,23.317663 422.613129,27.625015 424.720947,32.368038 
	C426.905609,37.283947 430.174774,37.756088 434.865906,36.541828 
	C434.865906,33.078106 434.865906,29.775030 434.865936,25.482773 
M88.985153,67.424110 
	C88.985153,69.524513 88.985153,71.624908 88.985153,74.009354 
	C92.993103,74.009354 96.600624,74.613914 99.875275,73.829285 
	C102.804306,73.127464 106.578773,71.502060 107.750847,69.165741 
	C108.934113,66.807121 107.375969,63.073200 107.018829,59.941795 
	C106.885384,57.413147 108.445061,53.889648 107.298355,52.146507 
	C105.882675,49.994480 102.334587,48.734844 99.492363,48.165276 
	C96.195282,47.504555 92.664246,48.011341 88.985153,48.011341 
	C88.985153,54.521793 88.985153,60.480125 88.985153,67.424110 
M124.806458,31.563129 
	C126.849365,34.952454 128.671036,38.736351 134.181046,36.451656 
	C131.882202,33.071602 129.619064,29.744030 127.392029,26.469559 
	C131.877792,22.131014 132.827164,19.602959 131.335892,15.906520 
	C129.498444,11.352036 125.484100,11.041166 121.396347,10.980693 
	C118.817574,10.942544 116.237778,10.973577 113.704643,10.973577 
	C113.704643,20.038509 113.704643,28.401772 113.704643,36.852341 
	C115.663017,36.852341 117.287872,36.852341 119.069580,36.852341 
	C119.226158,33.789566 119.374474,30.888456 119.522797,27.987347 
	C119.917038,27.744993 120.311287,27.502642 120.705536,27.260288 
	C121.916100,28.481030 123.126663,29.701771 124.806458,31.563129 
M141.217743,13.564115 
	C136.875076,17.513353 136.472748,22.564718 137.540237,27.828939 
	C138.857803,34.326340 143.528702,37.404018 150.913025,37.012070 
	C157.395248,36.668011 161.474991,32.911682 162.106781,26.486162 
	C162.612610,21.341639 162.329697,16.201796 157.454819,13.091904 
	C152.403412,9.869391 147.039200,10.157596 141.217743,13.564115 
M113.871124,55.686020 
	C111.703407,65.369308 114.775482,72.081848 122.144180,73.762833 
	C129.093826,75.348206 135.381287,72.436005 137.425903,66.684715 
	C140.043747,59.320980 137.458771,51.527714 131.557068,48.991127 
	C124.698807,46.043404 117.903297,48.348251 113.871124,55.686020 
M218.652115,51.092186 
	C214.788086,55.138172 214.480484,60.030697 215.607498,65.093826 
	C217.029282,71.481133 221.813004,74.509338 229.187836,74.009476 
	C235.413773,73.587479 239.415833,69.900223 240.077393,63.708740 
	C240.645538,58.391594 240.399673,53.053844 235.219147,49.953300 
	C229.932892,46.789497 224.424561,47.097683 218.652115,51.092186 
M316.336060,10.983356 
	C314.065460,10.983356 311.794830,10.983356 309.409363,10.983356 
	C309.409363,19.920340 309.409363,28.306040 309.409363,36.682167 
	C311.402832,36.682167 313.117371,36.682167 315.107880,36.682167 
	C315.107880,33.569778 315.107880,30.788204 315.107880,27.874453 
	C319.740479,27.284798 320.298157,31.306412 321.742615,33.616280 
	C323.863525,37.007957 326.262115,37.662373 330.034210,36.506065 
	C327.560089,32.953384 325.313019,29.726702 323.416199,27.002966 
	C324.912445,24.571733 326.763214,22.658663 327.336639,20.418600 
	C328.801819,14.694905 325.099487,11.415662 316.336060,10.983356 
M253.336060,47.983356 
	C251.065445,47.983356 248.794830,47.983356 246.409363,47.983356 
	C246.409363,56.920315 246.409363,65.306023 246.409363,73.682175 
	C248.402817,73.682175 250.117386,73.682175 252.107880,73.682175 
	C252.107880,70.569786 252.107880,67.788208 252.107880,64.723625 
	C256.608826,64.439232 257.304840,68.258980 258.759644,70.605019 
	C260.844086,73.966423 263.196472,74.849380 266.952576,73.387848 
	C265.678802,71.562500 264.549103,69.946976 263.423035,68.328911 
	C262.303375,66.720093 261.187378,65.108727 260.417938,64.000076 
	C261.912415,61.571751 263.763184,59.658691 264.336609,57.418633 
	C265.801819,51.694942 262.099487,48.415672 253.336060,47.983356 
M162.978149,74.009956 
	C163.255554,73.345276 163.964035,72.399391 163.742676,72.060081 
	C161.851212,69.160629 159.791138,66.371162 157.661636,63.380432 
	C161.909271,60.690529 163.430557,56.951683 161.649063,52.561237 
	C159.945404,48.362560 155.905243,48.012756 151.960876,47.989578 
	C149.369110,47.974350 146.777176,47.986698 144.266266,47.986698 
	C144.266266,57.024197 144.266266,65.427849 144.266266,74.066963 
	C146.283005,73.952431 148.003098,73.854752 150.057526,73.738075 
	C150.057526,70.454384 150.057526,67.699280 150.057526,64.944176 
	C150.502594,64.667358 150.947662,64.390533 151.392715,64.113716 
	C153.097580,66.192986 154.617157,68.470543 156.564545,70.290253 
	C158.190491,71.809586 160.317505,72.792679 162.978149,74.009956 
M73.440338,67.862976 
	C78.678131,66.514336 78.105392,71.581017 79.784439,73.836800 
	C81.700172,73.836800 83.339859,73.836800 85.518456,73.836800 
	C83.059456,66.981857 80.323372,60.557350 78.498283,53.883705 
	C77.054611,48.604752 74.441910,46.761871 69.136078,48.434483 
	C66.158058,56.738644 63.141811,65.149414 60.025677,73.838699 
	C62.213112,73.838699 64.010605,73.838699 65.915970,73.838699 
	C66.639481,71.930809 67.339401,70.085152 68.182114,67.862953 
	C69.603737,67.862953 71.073013,67.862953 73.440338,67.862976 
M234.855530,26.268234 
	C233.625992,29.720692 232.396454,33.173149 231.124435,36.744911 
	C233.513794,36.744911 235.269165,36.744911 236.915039,36.744911 
	C239.474838,30.128330 240.165756,29.829710 248.619812,31.414640 
	C249.312866,33.270515 249.991623,35.088127 250.726944,37.057190 
	C252.655396,36.966179 254.364426,36.885525 256.534912,36.783089 
	C253.649612,28.795305 250.779633,21.397255 248.355637,13.855856 
	C247.451889,11.044144 245.742722,10.482442 243.555893,11.084759 
	C241.984573,11.517548 239.995956,12.559136 239.367325,13.885488 
	C237.604019,17.605877 236.448776,21.614464 234.855530,26.268234 
M182.759384,50.616421 
	C182.141998,47.264099 179.494507,47.792553 177.331863,48.087353 
	C176.155533,48.247707 174.499390,49.190285 174.116531,50.186306 
	C171.156097,57.887711 168.454025,65.688423 165.551422,73.794922 
	C167.773071,73.794922 169.534775,73.794922 171.430573,73.794922 
	C172.198425,71.815857 172.947037,69.886353 173.665497,68.034615 
	C176.936172,68.034615 179.892929,68.034615 182.933441,68.034615 
	C183.674484,70.008774 184.368790,71.858437 185.056137,73.689590 
	C187.003235,73.689590 188.862518,73.689590 191.005280,73.689590 
	C188.235031,66.005547 185.601135,58.699680 182.759384,50.616421 
M283.121490,71.241142 
	C284.073730,72.169678 284.962585,73.806961 285.989716,73.898849 
	C289.614716,74.223160 293.287323,74.033546 296.941345,73.993591 
	C297.395752,73.988632 297.847168,73.712265 298.627655,73.452667 
	C298.501617,72.050385 298.377808,70.673119 298.230438,69.033638 
	C295.038940,69.033638 292.262329,69.033638 289.263062,69.033638 
	C289.263062,66.826851 289.263062,64.922234 289.263062,62.553329 
	C292.240173,62.553329 294.989197,62.553329 297.803284,62.553329 
	C297.803284,60.832085 297.803284,59.576145 297.803284,57.902885 
	C294.844574,57.902885 292.097046,57.902885 289.354187,57.902885 
	C289.354187,55.920700 289.354187,54.364658 289.354187,52.831066 
	C298.837585,52.286667 298.837585,52.286667 297.847168,48.229179 
	C293.065979,48.229179 288.307526,48.229179 283.120087,48.229179 
	C283.120087,55.746288 283.120087,63.014393 283.121490,71.241142 
M390.121429,13.762377 
	C390.121429,21.359690 390.121429,28.957005 390.121429,36.760941 
	C395.471588,36.760941 400.354523,36.760941 405.621796,36.760941 
	C405.491760,35.086693 405.384766,33.709183 405.242462,31.877010 
	C401.952850,31.877010 399.055695,31.877010 396.251526,31.877010 
	C396.251526,29.606354 396.251526,27.827255 396.251526,25.580498 
	C399.211884,25.580498 401.957489,25.580498 404.820068,25.580498 
	C404.820068,23.853773 404.820068,22.598835 404.820068,20.927153 
	C401.876648,20.927153 399.127777,20.927153 396.337463,20.927153 
	C396.337463,18.943558 396.337463,17.383221 396.337463,15.844758 
	C405.789642,15.262365 405.789642,15.262365 404.812042,10.973282 
	C400.881256,10.973282 396.897858,10.856904 392.930450,11.057303 
	C391.970825,11.105777 391.063995,12.200573 390.121429,13.762377 
M219.102783,16.564745 
	C221.131790,16.253250 223.165436,15.657746 225.188843,15.690681 
	C229.133759,15.754889 229.074966,13.864997 228.130096,11.248255 
	C223.028091,11.248255 218.269653,11.248255 213.401062,11.248255 
	C213.401062,19.902740 213.401062,28.278511 213.401062,36.712173 
	C218.573410,36.712173 223.460754,36.712173 228.729446,36.712173 
	C228.520691,34.978249 228.355667,33.607525 228.158890,31.973137 
	C224.954056,31.973137 222.178848,31.973137 219.293121,31.973137 
	C219.293121,29.742125 219.293121,27.834663 219.293121,25.953722 
	C227.981689,25.148376 227.981689,25.148376 227.456650,20.971006 
	C225.690842,20.971006 223.863571,20.792576 222.085114,21.011248 
	C219.139877,21.373384 218.737427,19.797199 219.102783,16.564745 
M296.773529,16.567612 
	C296.773193,19.726229 296.766602,22.884863 296.774261,26.043461 
	C296.783051,29.657536 295.711121,32.199673 291.418762,32.181240 
	C287.034546,32.162411 286.228851,29.419937 286.227631,25.902124 
	C286.225952,20.993792 286.227203,16.085459 286.227203,10.907975 
	C283.946228,11.057979 282.400452,11.159633 280.784546,11.265901 
	C280.784546,17.439194 280.605103,23.097067 280.837646,28.737955 
	C281.048309,33.847832 284.867035,36.825268 290.801270,37.000023 
	C297.077209,37.184837 301.708923,34.406956 302.020813,29.556768 
	C302.410522,23.496157 302.114441,17.391445 302.114441,10.987544 
	C300.080750,11.076870 298.525421,11.145184 296.773529,11.222132 
	C296.773529,12.969978 296.773529,14.284415 296.773529,16.567612 
M349.217377,12.372742 
	C344.274872,11.725679 339.332336,11.078617 334.260315,10.414600 
	C334.260315,19.931126 334.260315,28.326464 334.260315,36.818230 
	C339.307831,36.818230 344.075134,36.818230 349.182434,36.818230 
	C349.102386,35.226772 349.033234,33.852501 348.944763,32.093620 
	C345.833832,32.093620 343.074310,32.093620 339.870361,32.093620 
	C339.870361,30.575747 339.836029,29.455662 339.881927,28.338873 
	C339.914673,27.542591 340.055298,26.750744 340.141083,26.014675 
	C348.882294,25.009878 348.882294,25.009878 348.119385,20.773655 
	C345.462494,20.773655 342.719116,20.773655 339.775452,20.773655 
	C339.917908,18.838715 340.024048,17.396915 340.155762,15.607883 
	C342.386871,15.607883 344.402771,15.870626 346.298035,15.506179 
	C347.379425,15.298239 348.264130,14.067595 349.217377,12.372742 
M309.179749,48.169941 
	C305.689606,49.113831 303.165497,50.953587 302.989319,54.923847 
	C302.813751,58.880753 305.307037,60.892731 308.483154,62.397984 
	C309.829987,63.036282 311.308258,63.509094 312.465118,64.397736 
	C313.259338,65.007797 314.268890,66.552483 314.002167,67.063736 
	C313.518250,67.991196 312.144653,69.026833 311.159943,69.009727 
	C308.557495,68.964554 305.964417,68.380165 303.211914,67.988243 
	C301.718536,71.530266 303.160126,73.519730 306.958862,73.784882 
	C309.407837,73.955841 312.301788,74.385628 314.253387,73.328209 
	C316.566681,72.074814 319.212311,69.535957 319.600891,67.202393 
	C319.939728,65.167320 317.687958,62.323185 315.934143,60.438274 
	C314.560669,58.962147 312.092560,58.562771 310.322479,57.370693 
	C309.540649,56.844170 308.746552,55.405666 308.941162,54.626816 
	C309.127625,53.880562 310.583649,52.985989 311.488464,52.978527 
	C313.579468,52.961285 315.674622,53.441734 318.157806,53.772194 
	C318.582245,52.550163 319.030975,51.258110 319.775513,49.114429 
	C316.105072,48.715160 313.056702,48.383556 309.179749,48.169941 
M272.751526,23.820372 
	C270.988800,22.903811 269.073639,22.187994 267.513977,21.003979 
	C266.369476,20.135141 265.691010,18.652454 264.804840,17.443329 
	C266.246857,16.923281 267.669189,16.060987 269.136230,15.976709 
	C270.691345,15.887374 272.288940,16.537285 274.211578,16.935505 
	C274.660126,15.449931 275.054169,14.144893 275.696014,12.019217 
	C271.979706,11.662988 268.666382,10.521925 265.916321,11.320504 
	C263.325897,12.072719 259.945068,14.575233 259.462433,16.849079 
	C258.984802,19.099390 261.469086,22.181047 263.111206,24.585966 
	C263.841095,25.654909 265.878113,25.737112 266.986847,26.666733 
	C268.220276,27.700907 269.072205,29.190090 270.090210,30.481194 
	C268.498260,31.024168 266.909912,31.990107 265.313416,32.003830 
	C263.284912,32.021275 261.249786,31.266659 257.521729,30.493021 
	C259.094971,33.178276 259.631409,35.462761 260.977783,36.142143 
	C265.505524,38.426868 272.484741,36.964741 274.684570,33.581085 
	C276.890076,30.188665 276.464417,26.985357 272.751526,23.820372 
M403.009949,48.221367 
	C397.359222,47.399532 392.136444,48.209713 389.200012,53.670380 
	C386.348816,58.972473 386.355316,64.637802 389.788391,69.751266 
	C392.924866,74.422981 397.881348,74.367615 402.820312,73.801582 
	C406.162262,73.418579 407.495087,71.762749 406.167023,68.389038 
	C402.008270,68.611755 396.813934,71.378372 394.569397,66.247971 
	C393.243530,63.217388 393.264954,58.015244 395.089752,55.642899 
	C396.839600,53.368080 401.700684,53.486488 405.194489,52.553143 
	C407.816498,51.138546 407.767548,49.163284 403.009949,48.221367 
M106.452301,36.139900 
	C107.049942,34.693680 107.647583,33.247459 107.732643,33.041630 
	C103.181374,31.691662 98.175537,31.626629 95.983818,29.110401 
	C94.210106,27.074076 94.509583,21.102898 96.314407,18.693872 
	C98.024780,16.410934 102.888123,16.490181 106.364861,15.530596 
	C106.606583,16.010201 106.848305,16.489807 107.090027,16.969412 
	C107.558350,15.660595 108.026672,14.351778 108.480934,13.082267 
	C97.399071,7.662838 88.490280,13.182446 88.745285,24.937443 
	C88.953400,34.530823 94.763519,38.462250 106.452301,36.139900 
M446.386322,35.017429 
	C448.015076,35.876205 449.643829,36.734982 452.161011,38.062183 
	C452.161011,29.659273 452.161011,22.894451 452.161011,16.077929 
	C454.642395,15.911885 456.742401,15.771363 458.934509,15.624678 
	C458.934509,13.972328 458.934509,12.602664 458.934509,11.267763 
	C452.194183,11.267763 445.770813,11.267763 439.007050,11.267763 
	C439.212830,12.976546 439.378632,14.353020 439.533356,15.637934 
	C442.070648,15.847827 444.149597,16.019804 446.375336,16.203924 
	C446.375336,22.466305 446.375336,28.284252 446.386322,35.017429 
M203.484543,47.974060 
	C199.853821,47.974060 196.223083,47.974060 192.441391,47.974060 
	C192.441391,49.754871 192.441391,51.119804 192.441391,52.701206 
	C194.817551,52.831398 196.909073,52.945995 199.419540,53.083549 
	C199.419540,60.169048 199.419540,66.920219 199.419540,73.821785 
	C201.462372,73.821785 203.049179,73.821785 205.025940,73.821785 
	C205.025940,70.169052 205.025940,66.705704 205.025940,63.242359 
	C205.025940,59.828014 205.025940,56.413670 205.025940,53.022034 
	C207.823898,52.894306 209.921722,52.798538 212.051620,52.701309 
	C212.051620,50.920040 212.051620,49.646626 212.051620,47.974060 
	C209.394135,47.974060 206.927811,47.974060 203.484543,47.974060 
M47.864815,65.385490 
	C47.864815,59.647423 47.864815,53.909351 47.864815,48.185974 
	C45.590866,48.185974 43.988945,48.185974 42.339943,48.185974 
	C42.339943,56.887909 42.339943,65.384956 42.339943,73.680313 
	C47.930653,73.680313 53.159725,73.680313 58.251678,73.680313 
	C59.541313,69.370087 57.247681,69.283432 54.181095,68.972809 
	C52.055752,68.757523 48.002762,71.739075 47.864815,65.385490 
M351.241486,72.825104 
	C351.241486,64.620705 351.241486,56.416309 351.241486,48.152237 
	C349.063599,48.152237 347.448090,48.152237 345.732544,48.152237 
	C345.732544,56.824570 345.732544,65.308777 345.732544,74.128441 
	C347.735718,73.949257 349.352295,73.804649 351.241486,72.825104 
M83.013649,17.588406 
	C83.013649,15.470698 83.013649,13.352990 83.013649,10.935618 
	C80.767441,11.055970 79.053040,11.147828 77.360474,11.238516 
	C77.360474,20.010349 77.360474,28.278263 77.360474,36.742233 
	C79.292625,36.742233 81.002342,36.742233 83.013649,36.742233 
	C83.013649,30.508764 83.013649,24.539913 83.013649,17.588406 
M270.986420,59.514263 
	C270.986420,64.289902 270.986420,69.065544 270.986420,73.799377 
	C273.166595,73.799377 274.777344,73.799377 276.613678,73.799377 
	C276.613678,65.187019 276.613678,56.787228 276.613678,48.292198 
	C274.653320,48.292198 272.943420,48.292198 270.986420,48.292198 
	C270.986420,51.903160 270.986420,55.212673 270.986420,59.514263 
M417.181366,72.768433 
	C416.799713,71.220016 416.716766,69.472122 415.883850,68.225105 
	C415.567719,67.751816 413.149078,68.013641 412.378937,68.707024 
	C411.654694,69.359062 411.412354,71.953522 411.696136,72.083649 
	C413.236603,72.790001 415.005737,72.997620 417.181366,72.768433 
z"/>
<path fill="#616A8B" opacity="1.000000" stroke="none" 
	d="
M1.000000,15.428463 
	C5.132299,7.791422 11.339321,4.156048 16.996042,5.730763 
	C22.136314,7.161709 25.938593,10.155741 26.840324,15.654158 
	C27.843321,21.770042 25.136616,26.149422 19.048012,28.908480 
	C18.328932,28.125134 17.918991,27.150476 18.241989,26.635740 
	C20.904190,22.393194 20.166800,18.419964 16.137901,16.070148 
	C11.901932,13.599560 7.768150,15.022754 5.626149,19.519281 
	C5.015455,20.801262 3.898320,21.841988 2.750813,22.844034 
	C1.992136,22.129816 1.496068,21.564909 1.000000,21.000000 
	C1.000000,19.285641 1.000000,17.571283 1.000000,15.428463 
z"/>
<path fill="#586082" opacity="1.000000" stroke="none" 
	d="
M18.005278,59.888653 
	C26.889997,64.751022 28.954105,70.045807 25.084137,78.631477 
	C23.933331,79.000000 22.866661,79.000000 21.393064,78.602859 
	C20.655394,76.606285 20.864471,74.410851 19.886967,73.525497 
	C17.495724,71.359680 14.763289,68.924858 11.784245,68.219269 
	C8.164968,67.362030 5.746061,69.986870 4.937634,73.776794 
	C4.781054,74.510849 3.881009,75.086327 3.254454,75.306274 
	C3.036385,72.475883 2.887774,70.074158 2.828089,67.339081 
	C5.794317,60.070850 11.832596,59.837284 18.005278,59.888653 
z"/>
<path fill="#7983A2" opacity="1.000000" stroke="none" 
	d="
M22.521032,53.568501 
	C21.555857,54.349651 20.590683,55.130802 18.965939,55.988258 
	C17.179012,56.284176 16.051657,56.503788 14.751759,56.514034 
	C14.030623,56.078724 13.482033,55.852779 13.018450,55.661846 
	C13.723140,54.797276 14.401294,53.965263 15.282809,53.069069 
	C15.486172,53.004887 15.904958,52.924141 16.296658,52.888847 
	C18.491243,50.370213 19.461748,47.964222 16.024185,45.982635 
	C16.000051,45.999683 16.036430,45.951973 15.978418,45.596161 
	C13.777483,44.749279 11.275849,43.356575 9.594422,44.025517 
	C7.974044,44.670166 6.863715,47.329208 6.181468,49.326065 
	C5.769387,50.532181 6.599748,52.162785 6.604945,53.465488 
	C5.868249,52.957024 5.398458,52.585728 4.835661,51.929329 
	C4.215201,51.409054 3.687748,51.173878 3.012779,50.652313 
	C2.243509,49.577282 1.621755,48.788639 1.000000,48.000000 
	C1.000000,45.958332 1.000000,43.916668 1.302541,41.435001 
	C1.996945,40.899353 2.388810,40.803703 2.864352,41.109226 
	C3.037995,43.017117 3.127959,44.523838 3.254058,46.635723 
	C7.333712,40.424175 10.417953,38.927914 14.909016,40.512230 
	C20.080654,42.336639 21.636396,45.075130 21.392107,51.574871 
	C21.367695,52.224354 22.125994,52.903252 22.521032,53.568501 
z"/>
<path fill="#F7F8F9" opacity="1.000000" stroke="none" 
	d="
M1.000000,48.468403 
	C1.621755,48.788639 2.243509,49.577282 3.063147,50.955971 
	C3.816910,51.768826 4.372790,51.991627 4.928668,52.214432 
	C5.398458,52.585728 5.868249,52.957024 6.658994,53.773754 
	C9.031103,56.947731 11.578670,58.101456 14.924301,56.723396 
	C16.051657,56.503788 17.179012,56.284176 18.655512,56.089260 
	C18.693380,57.154114 18.382107,58.194271 18.038055,59.561539 
	C11.832596,59.837284 5.794317,60.070850 2.539706,67.403839 
	C1.774932,67.867966 1.387466,67.933983 1.000000,68.000000 
	C1.000000,61.645603 1.000000,55.291203 1.000000,48.468403 
z"/>
<path fill="#F7F8F9" opacity="1.000000" stroke="none" 
	d="
M2.780674,40.708054 
	C2.388810,40.803703 1.996945,40.899353 1.302541,40.997501 
	C1.000000,34.645603 1.000000,28.291204 1.000000,21.468403 
	C1.496068,21.564909 1.992136,22.129816 2.755203,23.200073 
	C6.588618,29.181299 11.670167,31.124096 18.009974,30.132809 
	C18.007439,30.821484 18.004904,31.510159 17.572134,32.637161 
	C10.751212,32.602364 5.193304,33.696175 2.780674,40.708054 
z"/>
<path fill="#848EAD" opacity="1.000000" stroke="none" 
	d="
M3.323913,75.734947 
	C3.881009,75.086327 4.781054,74.510849 4.937634,73.776794 
	C5.746061,69.986870 8.164968,67.362030 11.784245,68.219269 
	C14.763289,68.924858 17.495724,71.359680 19.886967,73.525497 
	C20.864471,74.410851 20.655394,76.606285 20.993069,78.602859 
	C19.611111,79.000000 18.222221,79.000000 16.447050,78.579536 
	C16.260908,75.402534 16.384396,72.279106 12.710377,72.251122 
	C11.155880,72.239288 9.365313,74.171425 8.119267,75.601074 
	C7.540922,76.264626 8.007251,77.838692 8.000000,79.000000 
	C6.933331,79.000000 5.866662,79.000000 4.300815,78.702057 
	C3.492191,77.643196 3.182745,76.882278 2.983972,76.022446 
	C3.094646,75.923531 3.323913,75.734947 3.323913,75.734947 
z"/>
<path fill="#CCD5E3" opacity="1.000000" stroke="none" 
	d="
M8.444163,79.000000 
	C8.007251,77.838692 7.540922,76.264626 8.119267,75.601074 
	C9.365313,74.171425 11.155880,72.239288 12.710377,72.251122 
	C16.384396,72.279106 16.260908,75.402534 16.030384,78.579536 
	C13.629442,79.000000 11.258885,79.000000 8.444163,79.000000 
z"/>
<path fill="#1C3C71" opacity="1.000000" stroke="none" 
	d="
M323.399994,79.000000 
	C323.557617,76.092781 324.115234,73.185570 324.691650,70.180389 
	C326.562714,70.180389 328.166107,70.180389 330.298035,70.180389 
	C329.183289,73.122551 328.200256,75.717026 327.108612,78.655754 
	C325.933319,79.000000 324.866669,79.000000 323.399994,79.000000 
z"/>
<path fill="#848EAD" opacity="1.000000" stroke="none" 
	d="
M1.000000,68.444168 
	C1.387466,67.933983 1.774932,67.867966 2.450780,67.737190 
	C2.887774,70.074158 3.036385,72.475883 3.254455,75.306274 
	C3.323913,75.734947 3.094646,75.923531 2.676310,75.950165 
	C1.838649,75.984535 1.419325,75.992264 1.000000,76.000000 
	C1.000000,73.629440 1.000000,71.258888 1.000000,68.444168 
z"/>
<path fill="#EAEDF2" opacity="1.000000" stroke="none" 
	d="
M1.000000,76.500000 
	C1.419325,75.992264 1.838649,75.984535 2.565636,76.049072 
	C3.182745,76.882278 3.492191,77.643196 3.900819,78.702057 
	C2.731102,78.736679 0.387769,80.085014 1.000000,76.500000 
z"/>
<path fill="#14356B" opacity="1.000000" stroke="none" 
	d="
M52.417645,19.545424 
	C53.550488,23.015022 54.528416,26.112986 55.977520,30.703579 
	C57.899094,25.134314 59.762566,21.105835 60.631268,16.873188 
	C61.752819,11.408581 64.631950,9.866048 69.954041,11.426153 
	C69.954041,19.699663 69.954041,28.091064 69.954041,36.744217 
	C68.451538,36.744217 67.028145,36.744217 65.172577,36.744217 
	C65.172577,31.151295 65.172577,25.463066 65.172577,19.774839 
	C64.870628,19.720371 64.568680,19.665905 64.266731,19.611437 
	C62.773289,24.086983 61.079086,28.508387 59.852695,33.055950 
	C58.942780,36.429996 57.229988,37.796833 53.166283,36.636894 
	C51.472115,31.355839 49.632771,25.622244 47.793423,19.888647 
	C47.576942,19.909966 47.360462,19.931286 47.143982,19.952604 
	C47.143982,25.441265 47.143982,30.929926 47.143982,36.774128 
	C45.367729,36.869423 43.967594,36.944538 42.274014,37.035397 
	C42.274014,28.396961 42.274014,19.987251 42.274014,11.284560 
	C44.659977,11.284560 47.069153,11.284560 49.785107,11.284560 
	C50.588272,13.841997 51.425503,16.507893 52.417645,19.545424 
z"/>
<path fill="#14356B" opacity="1.000000" stroke="none" 
	d="
M189.655792,23.368305 
	C190.388351,25.570679 190.980759,27.394320 192.014893,30.577772 
	C193.901016,25.116293 195.763229,21.081024 196.641602,16.841892 
	C197.774902,11.372485 200.697891,9.910519 205.965454,11.410766 
	C205.965454,19.723711 205.965454,28.114944 205.965454,36.755653 
	C204.429184,36.755653 203.006607,36.755653 201.146393,36.755653 
	C201.146393,31.135530 201.146393,25.457598 201.146393,19.779667 
	C200.857819,19.731134 200.569244,19.682602 200.280670,19.634071 
	C198.385269,25.204529 196.489883,30.774988 194.460770,36.738438 
	C193.025970,36.840343 191.419952,36.954411 189.315277,37.103897 
	C187.465881,31.335608 185.627945,25.603003 183.789993,19.870396 
	C183.566147,19.896984 183.342300,19.923571 183.118454,19.950159 
	C183.118454,25.448299 183.118454,30.946440 183.118454,36.718079 
	C181.334229,36.718079 179.936554,36.718079 178.264389,36.718079 
	C178.264389,28.370750 178.264389,19.961380 178.264389,11.271992 
	C180.684464,11.271992 183.094696,11.271992 185.775314,11.271992 
	C187.005997,15.127410 188.260818,19.058491 189.655792,23.368305 
z"/>
<path fill="#14356B" opacity="1.000000" stroke="none" 
	d="
M363.818176,15.079222 
	C365.397949,20.169874 366.865662,24.865074 368.715851,30.783785 
	C371.172516,23.590456 373.247620,17.514406 375.394623,11.227764 
	C377.686371,11.227764 379.987335,11.227764 382.648132,11.227764 
	C382.648132,19.486925 382.648132,27.887220 382.648132,36.784824 
	C381.131378,36.866081 379.393372,36.959187 377.270660,37.072906 
	C377.270660,32.136395 377.270660,27.370304 377.270660,22.604212 
	C376.917572,22.510471 376.564484,22.416731 376.211365,22.322990 
	C374.520721,27.146149 372.830078,31.969309 371.115692,36.860237 
	C369.464935,36.860237 367.988861,36.860237 366.041840,36.860237 
	C364.221283,31.342821 362.355042,25.687052 360.488831,20.031282 
	C360.104523,20.102808 359.720215,20.174335 359.335907,20.245863 
	C359.335907,25.596550 359.335907,30.947235 359.335907,36.297924 
	C358.939209,36.657616 358.542480,37.017311 358.145782,37.377007 
	C357.022980,36.508404 354.955719,35.671158 354.925690,34.766281 
	C354.667511,26.989429 354.777405,19.200369 354.777405,10.911344 
	C358.395874,11.600504 362.690338,8.875087 363.818176,15.079222 
z"/>
<path fill="#18396E" opacity="1.000000" stroke="none" 
	d="
M375.584229,73.993019 
	C372.397156,69.728775 369.612000,65.491890 366.861664,61.232506 
	C365.813660,59.609463 364.845612,57.934792 363.159668,55.163494 
	C363.159668,62.095016 363.159668,67.775879 363.159668,73.728195 
	C361.351929,73.728195 359.949463,73.728195 358.259613,73.728195 
	C358.259613,65.385048 358.259613,56.975224 358.259613,48.414478 
	C362.727753,47.107025 365.956299,47.882713 368.091187,52.702808 
	C369.949188,56.897591 372.709839,60.692562 375.749634,65.804482 
	C375.749634,59.249615 375.749634,53.915852 375.749634,48.215553 
	C377.776367,48.120007 379.343414,48.046135 381.265564,47.955521 
	C381.265564,56.621490 381.265564,65.009857 381.265564,74.011414 
	C379.518494,74.011414 377.759216,74.011414 375.584229,73.993019 
z"/>
<path fill="#193A6F" opacity="1.000000" stroke="none" 
	d="
M434.865906,25.977364 
	C434.865906,29.775030 434.865906,33.078106 434.865906,36.541828 
	C430.174774,37.756088 426.905609,37.283947 424.720947,32.368038 
	C422.613129,27.625015 419.524963,23.317663 416.280579,17.825418 
	C416.280579,24.799068 416.280579,30.539145 416.280579,36.643936 
	C414.578156,36.643936 413.068237,36.643936 411.343384,36.643936 
	C411.343384,28.245497 411.343384,19.984570 411.343384,11.399315 
	C415.638123,10.427710 419.013092,10.514844 421.241760,15.509673 
	C423.357941,20.252457 426.474640,24.548811 429.764465,30.070484 
	C429.764465,23.082899 429.764465,17.352041 429.764465,11.285196 
	C431.384064,11.161857 432.793243,11.054540 434.865936,10.896695 
	C434.865936,15.948574 434.865936,20.715673 434.865906,25.977364 
z"/>
<path fill="#18396E" opacity="1.000000" stroke="none" 
	d="
M88.985153,66.931290 
	C88.985153,60.480125 88.985153,54.521793 88.985153,48.011341 
	C92.664246,48.011341 96.195282,47.504555 99.492363,48.165276 
	C102.334587,48.734844 105.882675,49.994480 107.298355,52.146507 
	C108.445061,53.889648 106.885384,57.413147 107.018829,59.941795 
	C107.375969,63.073200 108.934113,66.807121 107.750847,69.165741 
	C106.578773,71.502060 102.804306,73.127464 99.875275,73.829285 
	C96.600624,74.613914 92.993103,74.009354 88.985153,74.009354 
	C88.985153,71.624908 88.985153,69.524513 88.985153,66.931290 
M98.218483,69.151421 
	C100.839134,69.297150 103.292740,68.498634 102.613869,65.503601 
	C101.606010,61.057114 98.010529,62.878258 94.492836,62.782040 
	C95.801109,65.248840 92.621361,68.645973 98.218483,69.151421 
M99.107384,57.947960 
	C100.054459,56.744263 101.001534,55.540565 101.948616,54.336872 
	C99.828468,53.597412 97.708321,52.857952 94.875107,51.869789 
	C95.090050,55.397514 93.460739,58.581844 99.107384,57.947960 
z"/>
<path fill="#1E3E72" opacity="1.000000" stroke="none" 
	d="
M124.571838,31.242821 
	C123.126663,29.701771 121.916100,28.481030 120.705536,27.260288 
	C120.311287,27.502642 119.917038,27.744993 119.522797,27.987347 
	C119.374474,30.888456 119.226158,33.789566 119.069580,36.852341 
	C117.287872,36.852341 115.663017,36.852341 113.704643,36.852341 
	C113.704643,28.401772 113.704643,20.038509 113.704643,10.973577 
	C116.237778,10.973577 118.817574,10.942544 121.396347,10.980693 
	C125.484100,11.041166 129.498444,11.352036 131.335892,15.906520 
	C132.827164,19.602959 131.877792,22.131014 127.392029,26.469559 
	C129.619064,29.744030 131.882202,33.071602 134.181046,36.451656 
	C128.671036,38.736351 126.849365,34.952454 124.571838,31.242821 
M125.976013,20.191610 
	C126.313660,15.063748 122.829689,15.857439 119.564461,15.883068 
	C119.564461,18.350697 119.564461,20.565397 119.564461,23.831594 
	C122.060928,22.672691 123.888870,21.824125 125.976013,20.191610 
z"/>
<path fill="#193A6F" opacity="1.000000" stroke="none" 
	d="
M141.523834,13.329923 
	C147.039200,10.157596 152.403412,9.869391 157.454819,13.091904 
	C162.329697,16.201796 162.612610,21.341639 162.106781,26.486162 
	C161.474991,32.911682 157.395248,36.668011 150.913025,37.012070 
	C143.528702,37.404018 138.857803,34.326340 137.540237,27.828939 
	C136.472748,22.564718 136.875076,17.513353 141.523834,13.329923 
M144.566650,18.108704 
	C144.048523,20.174999 143.094666,22.243769 143.106384,24.307056 
	C143.128235,28.157135 144.132004,32.104786 148.951477,31.948923 
	C151.182098,31.876785 155.006485,30.095728 155.220673,28.658962 
	C155.764114,25.013529 155.716339,20.513170 153.947586,17.507006 
	C152.203568,14.542845 148.083740,15.188699 144.566650,18.108704 
z"/>
<path fill="#193A6F" opacity="1.000000" stroke="none" 
	d="
M113.972755,55.303391 
	C117.903297,48.348251 124.698807,46.043404 131.557068,48.991127 
	C137.458771,51.527714 140.043747,59.320980 137.425903,66.684715 
	C135.381287,72.436005 129.093826,75.348206 122.144180,73.762833 
	C114.775482,72.081848 111.703407,65.369308 113.972755,55.303391 
M132.363892,61.424782 
	C132.107330,57.716801 132.023102,53.863277 127.242287,52.931831 
	C122.831436,52.072464 119.947533,54.234589 119.142624,58.868736 
	C118.223137,64.162521 120.513054,68.538582 124.497696,69.102310 
	C129.059174,69.747643 131.257156,67.799911 132.363892,61.424782 
z"/>
<path fill="#193A6F" opacity="1.000000" stroke="none" 
	d="
M218.932983,50.830231 
	C224.424561,47.097683 229.932892,46.789497 235.219147,49.953300 
	C240.399673,53.053844 240.645538,58.391594 240.077393,63.708740 
	C239.415833,69.900223 235.413773,73.587479 229.187836,74.009476 
	C221.813004,74.509338 217.029282,71.481133 215.607498,65.093826 
	C214.480484,60.030697 214.788086,55.138172 218.932983,50.830231 
M223.040985,67.493538 
	C225.827179,67.743668 229.995239,69.218719 231.097061,67.975746 
	C233.076279,65.743004 233.780746,61.911572 233.970505,58.686516 
	C234.181229,55.104729 231.880066,52.973885 227.989136,52.829605 
	C224.126953,52.686386 221.721909,54.608162 221.422653,58.165863 
	C221.183868,61.004696 222.131165,63.943295 223.040985,67.493538 
z"/>
<path fill="#19396F" opacity="1.000000" stroke="none" 
	d="
M316.788513,10.983511 
	C325.099487,11.415662 328.801819,14.694905 327.336639,20.418600 
	C326.763214,22.658663 324.912445,24.571733 323.416199,27.002966 
	C325.313019,29.726702 327.560089,32.953384 330.034210,36.506065 
	C326.262115,37.662373 323.863525,37.007957 321.742615,33.616280 
	C320.298157,31.306412 319.740479,27.284798 315.107880,27.874453 
	C315.107880,30.788204 315.107880,33.569778 315.107880,36.682167 
	C313.117371,36.682167 311.402832,36.682167 309.409363,36.682167 
	C309.409363,28.306040 309.409363,19.920340 309.409363,10.983356 
	C311.794830,10.983356 314.065460,10.983356 316.788513,10.983511 
M315.441071,15.848901 
	C315.292450,18.190929 315.143860,20.532959 314.995239,22.874987 
	C315.479309,23.218237 315.963348,23.561487 316.447418,23.904737 
	C318.267029,22.469393 321.296204,21.284904 321.656647,19.546942 
	C322.427704,15.829096 318.944061,15.885731 315.441071,15.848901 
z"/>
<path fill="#19396F" opacity="1.000000" stroke="none" 
	d="
M253.788528,47.983513 
	C262.099487,48.415672 265.801819,51.694942 264.336609,57.418633 
	C263.763184,59.658691 261.912415,61.571751 260.417938,64.000076 
	C261.187378,65.108727 262.303375,66.720093 263.423035,68.328911 
	C264.549103,69.946976 265.678802,71.562500 266.952576,73.387848 
	C263.196472,74.849380 260.844086,73.966423 258.759644,70.605019 
	C257.304840,68.258980 256.608826,64.439232 252.107880,64.723625 
	C252.107880,67.788208 252.107880,70.569786 252.107880,73.682175 
	C250.117386,73.682175 248.402817,73.682175 246.409363,73.682175 
	C246.409363,65.306023 246.409363,56.920315 246.409363,47.983356 
	C248.794830,47.983356 251.065445,47.983356 253.788528,47.983513 
M255.943680,52.914021 
	C254.713272,52.914021 253.482849,52.914021 252.307739,52.914021 
	C252.307739,55.453365 252.307739,57.671673 252.307739,61.119144 
	C254.909409,59.655006 257.064606,58.903130 258.427460,57.422134 
	C258.896942,56.911953 257.390900,54.583916 255.943680,52.914021 
z"/>
<path fill="#17386E" opacity="1.000000" stroke="none" 
	d="
M162.600388,74.011604 
	C160.317505,72.792679 158.190491,71.809586 156.564545,70.290253 
	C154.617157,68.470543 153.097580,66.192986 151.392715,64.113716 
	C150.947662,64.390533 150.502594,64.667358 150.057526,64.944176 
	C150.057526,67.699280 150.057526,70.454384 150.057526,73.738075 
	C148.003098,73.854752 146.283005,73.952431 144.266266,74.066963 
	C144.266266,65.427849 144.266266,57.024197 144.266266,47.986698 
	C146.777176,47.986698 149.369110,47.974350 151.960876,47.989578 
	C155.905243,48.012756 159.945404,48.362560 161.649063,52.561237 
	C163.430557,56.951683 161.909271,60.690529 157.661636,63.380432 
	C159.791138,66.371162 161.851212,69.160629 163.742676,72.060081 
	C163.964035,72.399391 163.255554,73.345276 162.600388,74.011604 
M156.298660,54.837738 
	C154.415161,53.942005 152.531677,53.046276 150.106583,51.892975 
	C149.975891,54.190434 149.846985,55.331711 149.864288,56.470764 
	C149.881393,57.597775 150.046036,58.722553 150.144363,59.830223 
	C155.412643,59.749279 155.412643,59.749279 156.298660,54.837738 
z"/>
<path fill="#18396E" opacity="1.000000" stroke="none" 
	d="
M72.991310,67.862961 
	C71.073013,67.862953 69.603737,67.862953 68.182114,67.862953 
	C67.339401,70.085152 66.639481,71.930809 65.915970,73.838699 
	C64.010605,73.838699 62.213112,73.838699 60.025677,73.838699 
	C63.141811,65.149414 66.158058,56.738644 69.136078,48.434483 
	C74.441910,46.761871 77.054611,48.604752 78.498283,53.883705 
	C80.323372,60.557350 83.059456,66.981857 85.518456,73.836800 
	C83.339859,73.836800 81.700172,73.836800 79.784439,73.836800 
	C78.105392,71.581017 78.678131,66.514336 72.991310,67.862961 
M69.986710,62.624092 
	C71.909012,62.763924 73.831314,62.903751 76.320358,63.084808 
	C75.065674,59.537994 74.009575,56.552563 72.650459,52.710529 
	C71.528549,56.417355 70.717438,59.097294 69.986710,62.624092 
z"/>
<path fill="#18396E" opacity="1.000000" stroke="none" 
	d="
M234.954590,25.888802 
	C236.448776,21.614464 237.604019,17.605877 239.367325,13.885488 
	C239.995956,12.559136 241.984573,11.517548 243.555893,11.084759 
	C245.742722,10.482442 247.451889,11.044144 248.355637,13.855856 
	C250.779633,21.397255 253.649612,28.795305 256.534912,36.783089 
	C254.364426,36.885525 252.655396,36.966179 250.726944,37.057190 
	C249.991623,35.088127 249.312866,33.270515 248.619812,31.414640 
	C240.165756,29.829710 239.474838,30.128330 236.915039,36.744911 
	C235.269165,36.744911 233.513794,36.744911 231.124435,36.744911 
	C232.396454,33.173149 233.625992,29.720692 234.954590,25.888802 
M242.022415,20.867598 
	C241.612793,22.439087 241.203171,24.010576 240.736237,25.801970 
	C242.944046,25.801970 244.863205,25.801970 247.239182,25.801970 
	C246.061188,22.519274 245.005661,19.577818 243.701233,15.942753 
	C242.991669,17.938372 242.604385,19.027637 242.022415,20.867598 
z"/>
<path fill="#17386E" opacity="1.000000" stroke="none" 
	d="
M182.863312,51.005119 
	C185.601135,58.699680 188.235031,66.005547 191.005280,73.689590 
	C188.862518,73.689590 187.003235,73.689590 185.056137,73.689590 
	C184.368790,71.858437 183.674484,70.008774 182.933441,68.034615 
	C179.892929,68.034615 176.936172,68.034615 173.665497,68.034615 
	C172.947037,69.886353 172.198425,71.815857 171.430573,73.794922 
	C169.534775,73.794922 167.773071,73.794922 165.551422,73.794922 
	C168.454025,65.688423 171.156097,57.887711 174.116531,50.186306 
	C174.499390,49.190285 176.155533,48.247707 177.331863,48.087353 
	C179.494507,47.792553 182.141998,47.264099 182.863312,51.005119 
M179.100266,54.895794 
	C178.683823,54.678123 178.267365,54.460457 177.850922,54.242783 
	C176.914261,57.019901 175.977600,59.797020 174.950012,62.843735 
	C177.279373,62.843735 179.207474,62.843735 181.659103,62.843735 
	C180.803757,60.225117 180.050354,57.918617 179.100266,54.895794 
z"/>
<path fill="#1F3E72" opacity="1.000000" stroke="none" 
	d="
M283.120789,70.761826 
	C283.120087,63.014393 283.120087,55.746288 283.120087,48.229179 
	C288.307526,48.229179 293.065979,48.229179 297.847168,48.229179 
	C298.837585,52.286667 298.837585,52.286667 289.354187,52.831066 
	C289.354187,54.364658 289.354187,55.920700 289.354187,57.902885 
	C292.097046,57.902885 294.844574,57.902885 297.803284,57.902885 
	C297.803284,59.576145 297.803284,60.832085 297.803284,62.553329 
	C294.989197,62.553329 292.240173,62.553329 289.263062,62.553329 
	C289.263062,64.922234 289.263062,66.826851 289.263062,69.033638 
	C292.262329,69.033638 295.038940,69.033638 298.230438,69.033638 
	C298.377808,70.673119 298.501617,72.050385 298.627655,73.452667 
	C297.847168,73.712265 297.395752,73.988632 296.941345,73.993591 
	C293.287323,74.033546 289.614716,74.223160 285.989716,73.898849 
	C284.962585,73.806961 284.073730,72.169678 283.120789,70.761826 
z"/>
<path fill="#1F3E72" opacity="1.000000" stroke="none" 
	d="
M390.127167,13.288300 
	C391.063995,12.200573 391.970825,11.105777 392.930450,11.057303 
	C396.897858,10.856904 400.881256,10.973282 404.812042,10.973282 
	C405.789642,15.262365 405.789642,15.262365 396.337463,15.844758 
	C396.337463,17.383221 396.337463,18.943558 396.337463,20.927153 
	C399.127777,20.927153 401.876648,20.927153 404.820068,20.927153 
	C404.820068,22.598835 404.820068,23.853773 404.820068,25.580498 
	C401.957489,25.580498 399.211884,25.580498 396.251526,25.580498 
	C396.251526,27.827255 396.251526,29.606354 396.251526,31.877010 
	C399.055695,31.877010 401.952850,31.877010 405.242462,31.877010 
	C405.384766,33.709183 405.491760,35.086693 405.621796,36.760941 
	C400.354523,36.760941 395.471588,36.760941 390.121429,36.760941 
	C390.121429,28.957005 390.121429,21.359690 390.127167,13.288300 
z"/>
<path fill="#1F3E72" opacity="1.000000" stroke="none" 
	d="
M219.070053,17.026421 
	C218.737427,19.797199 219.139877,21.373384 222.085114,21.011248 
	C223.863571,20.792576 225.690842,20.971006 227.456650,20.971006 
	C227.981689,25.148376 227.981689,25.148376 219.293121,25.953722 
	C219.293121,27.834663 219.293121,29.742125 219.293121,31.973137 
	C222.178848,31.973137 224.954056,31.973137 228.158890,31.973137 
	C228.355667,33.607525 228.520691,34.978249 228.729446,36.712173 
	C223.460754,36.712173 218.573410,36.712173 213.401062,36.712173 
	C213.401062,28.278511 213.401062,19.902740 213.401062,11.248255 
	C218.269653,11.248255 223.028091,11.248255 228.130096,11.248255 
	C229.074966,13.864997 229.133759,15.754889 225.188843,15.690681 
	C223.165436,15.657746 221.131790,16.253250 219.070053,17.026421 
z"/>
<path fill="#12336B" opacity="1.000000" stroke="none" 
	d="
M296.773529,16.083233 
	C296.773529,14.284415 296.773529,12.969978 296.773529,11.222132 
	C298.525421,11.145184 300.080750,11.076870 302.114441,10.987544 
	C302.114441,17.391445 302.410522,23.496157 302.020813,29.556768 
	C301.708923,34.406956 297.077209,37.184837 290.801270,37.000023 
	C284.867035,36.825268 281.048309,33.847832 280.837646,28.737955 
	C280.605103,23.097067 280.784546,17.439194 280.784546,11.265901 
	C282.400452,11.159633 283.946228,11.057979 286.227203,10.907975 
	C286.227203,16.085459 286.225952,20.993792 286.227631,25.902124 
	C286.228851,29.419937 287.034546,32.162411 291.418762,32.181240 
	C295.711121,32.199673 296.783051,29.657536 296.774261,26.043461 
	C296.766602,22.884863 296.773193,19.726229 296.773529,16.083233 
z"/>
<path fill="#193A6F" opacity="1.000000" stroke="none" 
	d="
M349.227386,12.835096 
	C348.264130,14.067595 347.379425,15.298239 346.298035,15.506179 
	C344.402771,15.870626 342.386871,15.607883 340.155762,15.607883 
	C340.024048,17.396915 339.917908,18.838715 339.775452,20.773655 
	C342.719116,20.773655 345.462494,20.773655 348.119385,20.773655 
	C348.882294,25.009878 348.882294,25.009878 340.141083,26.014675 
	C340.055298,26.750744 339.914673,27.542591 339.881927,28.338873 
	C339.836029,29.455662 339.870361,30.575747 339.870361,32.093620 
	C343.074310,32.093620 345.833832,32.093620 348.944763,32.093620 
	C349.033234,33.852501 349.102386,35.226772 349.182434,36.818230 
	C344.075134,36.818230 339.307831,36.818230 334.260315,36.818230 
	C334.260315,28.326464 334.260315,19.931126 334.260315,10.414600 
	C339.332336,11.078617 344.274872,11.725679 349.227386,12.835096 
z"/>
<path fill="#1B3B70" opacity="1.000000" stroke="none" 
	d="
M309.594025,48.110947 
	C313.056702,48.383556 316.105072,48.715160 319.775513,49.114429 
	C319.030975,51.258110 318.582245,52.550163 318.157806,53.772194 
	C315.674622,53.441734 313.579468,52.961285 311.488464,52.978527 
	C310.583649,52.985989 309.127625,53.880562 308.941162,54.626816 
	C308.746552,55.405666 309.540649,56.844170 310.322479,57.370693 
	C312.092560,58.562771 314.560669,58.962147 315.934143,60.438274 
	C317.687958,62.323185 319.939728,65.167320 319.600891,67.202393 
	C319.212311,69.535957 316.566681,72.074814 314.253387,73.328209 
	C312.301788,74.385628 309.407837,73.955841 306.958862,73.784882 
	C303.160126,73.519730 301.718536,71.530266 303.211914,67.988243 
	C305.964417,68.380165 308.557495,68.964554 311.159943,69.009727 
	C312.144653,69.026833 313.518250,67.991196 314.002167,67.063736 
	C314.268890,66.552483 313.259338,65.007797 312.465118,64.397736 
	C311.308258,63.509094 309.829987,63.036282 308.483154,62.397984 
	C305.307037,60.892731 302.813751,58.880753 302.989319,54.923847 
	C303.165497,50.953587 305.689606,49.113831 309.594025,48.110947 
z"/>
<path fill="#1B3B70" opacity="1.000000" stroke="none" 
	d="
M273.061035,24.034233 
	C276.464417,26.985357 276.890076,30.188665 274.684570,33.581085 
	C272.484741,36.964741 265.505524,38.426868 260.977783,36.142143 
	C259.631409,35.462761 259.094971,33.178276 257.521729,30.493021 
	C261.249786,31.266659 263.284912,32.021275 265.313416,32.003830 
	C266.909912,31.990107 268.498260,31.024168 270.090210,30.481194 
	C269.072205,29.190090 268.220276,27.700907 266.986847,26.666733 
	C265.878113,25.737112 263.841095,25.654909 263.111206,24.585966 
	C261.469086,22.181047 258.984802,19.099390 259.462433,16.849079 
	C259.945068,14.575233 263.325897,12.072719 265.916321,11.320504 
	C268.666382,10.521925 271.979706,11.662988 275.696014,12.019217 
	C275.054169,14.144893 274.660126,15.449931 274.211578,16.935505 
	C272.288940,16.537285 270.691345,15.887374 269.136230,15.976709 
	C267.669189,16.060987 266.246857,16.923281 264.804840,17.443333 
	C265.691010,18.652454 266.369476,20.135141 267.513977,21.003979 
	C269.073639,22.187994 270.988800,22.903811 273.061035,24.034233 
z"/>
<path fill="#1C3C71" opacity="1.000000" stroke="none" 
	d="
M403.419800,48.327789 
	C407.767548,49.163284 407.816498,51.138546 405.194489,52.553143 
	C401.700684,53.486488 396.839600,53.368080 395.089752,55.642899 
	C393.264954,58.015244 393.243530,63.217388 394.569397,66.247971 
	C396.813934,71.378372 402.008270,68.611755 406.167023,68.389038 
	C407.495087,71.762749 406.162262,73.418579 402.820312,73.801582 
	C397.881348,74.367615 392.924866,74.422981 389.788391,69.751266 
	C386.355316,64.637802 386.348816,58.972473 389.200012,53.670380 
	C392.136444,48.209713 397.359222,47.399532 403.419800,48.327789 
z"/>
<path fill="#1C3C71" opacity="1.000000" stroke="none" 
	d="
M106.048164,36.255947 
	C94.763519,38.462250 88.953400,34.530823 88.745285,24.937443 
	C88.490280,13.182446 97.399071,7.662838 108.480934,13.082267 
	C108.026672,14.351778 107.558350,15.660595 107.090027,16.969412 
	C106.848305,16.489807 106.606583,16.010201 106.364861,15.530596 
	C102.888123,16.490181 98.024780,16.410934 96.314407,18.693872 
	C94.509583,21.102898 94.210106,27.074076 95.983818,29.110401 
	C98.175537,31.626629 103.181374,31.691662 107.732643,33.041630 
	C107.647583,33.247459 107.049942,34.693680 106.048164,36.255947 
z"/>
<path fill="#1D3D72" opacity="1.000000" stroke="none" 
	d="
M446.380829,34.559814 
	C446.375336,28.284252 446.375336,22.466305 446.375336,16.203924 
	C444.149597,16.019804 442.070648,15.847827 439.533356,15.637934 
	C439.378632,14.353020 439.212830,12.976546 439.007050,11.267763 
	C445.770813,11.267763 452.194183,11.267763 458.934509,11.267763 
	C458.934509,12.602664 458.934509,13.972328 458.934509,15.624678 
	C456.742401,15.771363 454.642395,15.911885 452.161011,16.077929 
	C452.161011,22.894451 452.161011,29.659273 452.161011,38.062183 
	C449.643829,36.734982 448.015076,35.876205 446.380829,34.559814 
z"/>
<path fill="#1D3D72" opacity="1.000000" stroke="none" 
	d="
M203.973022,47.974060 
	C206.927811,47.974060 209.394135,47.974060 212.051620,47.974060 
	C212.051620,49.646626 212.051620,50.920040 212.051620,52.701309 
	C209.921722,52.798538 207.823898,52.894306 205.025940,53.022034 
	C205.025940,56.413670 205.025940,59.828014 205.025940,63.242359 
	C205.025940,66.705704 205.025940,70.169052 205.025940,73.821785 
	C203.049179,73.821785 201.462372,73.821785 199.419540,73.821785 
	C199.419540,66.920219 199.419540,60.169048 199.419540,53.083549 
	C196.909073,52.945995 194.817551,52.831398 192.441391,52.701206 
	C192.441391,51.119804 192.441391,49.754871 192.441391,47.974060 
	C196.223083,47.974060 199.853821,47.974060 203.973022,47.974060 
z"/>
<path fill="#586083" opacity="1.000000" stroke="none" 
	d="
M2.864352,41.109222 
	C5.193304,33.696175 10.751212,32.602364 17.573389,32.981499 
	C28.115891,38.612820 29.943264,45.855049 22.835634,53.424019 
	C22.125994,52.903252 21.367695,52.224354 21.392107,51.574871 
	C21.636396,45.075130 20.080654,42.336639 14.909016,40.512230 
	C10.417953,38.927914 7.333712,40.424175 3.254058,46.635723 
	C3.127959,44.523838 3.037995,43.017117 2.864352,41.109222 
z"/>
<path fill="#19396F" opacity="1.000000" stroke="none" 
	d="
M47.865585,65.872574 
	C48.002762,71.739075 52.055752,68.757523 54.181095,68.972809 
	C57.247681,69.283432 59.541313,69.370087 58.251678,73.680313 
	C53.159725,73.680313 47.930653,73.680313 42.339943,73.680313 
	C42.339943,65.384956 42.339943,56.887909 42.339943,48.185974 
	C43.988945,48.185974 45.590866,48.185974 47.864815,48.185974 
	C47.864815,53.909351 47.864815,59.647423 47.865585,65.872574 
z"/>
<path fill="#214074" opacity="1.000000" stroke="none" 
	d="
M351.105194,73.242569 
	C349.352295,73.804649 347.735718,73.949257 345.732544,74.128441 
	C345.732544,65.308777 345.732544,56.824570 345.732544,48.152237 
	C347.448090,48.152237 349.063599,48.152237 351.241486,48.152237 
	C351.241486,56.416309 351.241486,64.620705 351.105194,73.242569 
z"/>
<path fill="#17386E" opacity="1.000000" stroke="none" 
	d="
M83.013649,18.079735 
	C83.013649,24.539913 83.013649,30.508764 83.013649,36.742233 
	C81.002342,36.742233 79.292625,36.742233 77.360474,36.742233 
	C77.360474,28.278263 77.360474,20.010349 77.360474,11.238516 
	C79.053040,11.147828 80.767441,11.055970 83.013649,10.935618 
	C83.013649,13.352990 83.013649,15.470698 83.013649,18.079735 
z"/>
<path fill="#17386E" opacity="1.000000" stroke="none" 
	d="
M270.986420,59.018227 
	C270.986420,55.212673 270.986420,51.903160 270.986420,48.292198 
	C272.943420,48.292198 274.653320,48.292198 276.613678,48.292198 
	C276.613678,56.787228 276.613678,65.187019 276.613678,73.799377 
	C274.777344,73.799377 273.166595,73.799377 270.986420,73.799377 
	C270.986420,69.065544 270.986420,64.289902 270.986420,59.018227 
z"/>
<path fill="#8E9AB7" opacity="1.000000" stroke="none" 
	d="
M18.218208,29.982769 
	C11.670167,31.124096 6.588618,29.181299 3.017811,23.349384 
	C3.898320,21.841988 5.015455,20.801262 5.626149,19.519281 
	C7.768150,15.022754 11.901932,13.599560 16.137901,16.070148 
	C20.166800,18.419964 20.904190,22.393194 18.241989,26.635740 
	C17.918991,27.150476 18.328932,28.125134 18.693592,28.938351 
	C18.800812,29.270954 18.613628,29.551842 18.218208,29.982769 
M9.232773,25.554831 
	C10.154416,25.726851 11.076058,25.898872 12.715714,25.981573 
	C13.809066,24.322304 14.902419,22.663033 16.016129,20.262852 
	C15.001019,17.322573 13.672393,15.490870 10.386762,19.078274 
	C9.905864,19.371645 9.424965,19.665014 8.264085,20.087048 
	C5.893473,22.117002 6.905894,23.639355 9.000000,25.000000 
	C9.000000,25.000000 9.000790,24.998871 9.232773,25.554831 
z"/>
<path fill="#294779" opacity="1.000000" stroke="none" 
	d="
M416.938751,73.072701 
	C415.005737,72.997620 413.236603,72.790001 411.696136,72.083649 
	C411.412354,71.953522 411.654694,69.359062 412.378937,68.707024 
	C413.149078,68.013641 415.567719,67.751816 415.883850,68.225105 
	C416.716766,69.472122 416.799713,71.220016 416.938751,73.072701 
z"/>
<path fill="#C8D1E1" opacity="1.000000" stroke="none" 
	d="
M15.904959,52.924141 
	C15.904958,52.924141 15.486172,53.004887 14.852433,53.024303 
	C12.215816,52.353588 10.003547,51.961548 8.337804,50.791462 
	C7.838830,50.440971 8.406561,47.049683 9.293818,46.580769 
	C10.893295,45.735443 13.101856,46.036198 15.057587,45.877716 
	C15.379746,45.851608 15.709947,45.924717 16.036430,45.951973 
	C16.036430,45.951973 16.000051,45.999683 15.996727,46.420315 
	C15.963922,48.868679 15.934441,50.896408 15.904959,52.924141 
z"/>
<path fill="#97A2BE" opacity="1.000000" stroke="none" 
	d="
M15.978418,45.596161 
	C15.709947,45.924717 15.379746,45.851608 15.057587,45.877716 
	C13.101856,46.036198 10.893295,45.735443 9.293818,46.580769 
	C8.406561,47.049683 7.838830,50.440971 8.337804,50.791462 
	C10.003547,51.961548 12.215816,52.353588 14.649071,53.088486 
	C14.401294,53.965263 13.723140,54.797276 13.018450,55.661846 
	C13.482033,55.852779 14.030623,56.078724 14.751759,56.514030 
	C11.578670,58.101456 9.031103,56.947731 6.925899,53.910923 
	C6.599748,52.162785 5.769387,50.532181 6.181468,49.326065 
	C6.863715,47.329208 7.974044,44.670166 9.594422,44.025517 
	C11.275849,43.356575 13.777483,44.749279 15.978418,45.596161 
z"/>
<path fill="#97A2BE" opacity="1.000000" stroke="none" 
	d="
M16.296658,52.888847 
	C15.934441,50.896408 15.963922,48.868679 16.020861,46.403267 
	C19.461748,47.964222 18.491243,50.370213 16.296658,52.888847 
z"/>
<path fill="#97A2BE" opacity="1.000000" stroke="none" 
	d="
M4.835662,51.929329 
	C4.372790,51.991627 3.816910,51.768826 3.210662,51.242363 
	C3.687748,51.173878 4.215201,51.409054 4.835662,51.929329 
z"/>
<path fill="#F7F8F9" opacity="1.000000" stroke="none" 
	d="
M97.770180,69.150398 
	C92.621361,68.645973 95.801109,65.248840 94.492836,62.782040 
	C98.010529,62.878258 101.606010,61.057114 102.613869,65.503601 
	C103.292740,68.498634 100.839134,69.297150 97.770180,69.150398 
z"/>
<path fill="#F7F8F9" opacity="1.000000" stroke="none" 
	d="
M98.667419,57.969688 
	C93.460739,58.581844 95.090050,55.397514 94.875107,51.869789 
	C97.708321,52.857952 99.828468,53.597412 101.948616,54.336872 
	C101.001534,55.540565 100.054459,56.744263 98.667419,57.969688 
z"/>
<path fill="#EFF1F5" opacity="1.000000" stroke="none" 
	d="
M125.846413,20.583586 
	C123.888870,21.824125 122.060928,22.672691 119.564461,23.831594 
	C119.564461,20.565397 119.564461,18.350697 119.564461,15.883068 
	C122.829689,15.857439 126.313660,15.063748 125.846413,20.583586 
z"/>
<path fill="#F9FAFB" opacity="1.000000" stroke="none" 
	d="
M144.806656,17.779289 
	C148.083740,15.188699 152.203568,14.542845 153.947586,17.507006 
	C155.716339,20.513170 155.764114,25.013529 155.220673,28.658962 
	C155.006485,30.095728 151.182098,31.876785 148.951477,31.948923 
	C144.132004,32.104786 143.128235,28.157135 143.106384,24.307056 
	C143.094666,22.243769 144.048523,20.174999 144.806656,17.779289 
z"/>
<path fill="#F9FAFB" opacity="1.000000" stroke="none" 
	d="
M132.284760,61.848381 
	C131.257156,67.799911 129.059174,69.747643 124.497696,69.102310 
	C120.513054,68.538582 118.223137,64.162521 119.142624,58.868736 
	C119.947533,54.234589 122.831436,52.072464 127.242287,52.931831 
	C132.023102,53.863277 132.107330,57.716801 132.284760,61.848381 
z"/>
<path fill="#F9FAFB" opacity="1.000000" stroke="none" 
	d="
M222.796478,67.165573 
	C222.131165,63.943295 221.183868,61.004696 221.422653,58.165863 
	C221.721909,54.608162 224.126953,52.686386 227.989136,52.829605 
	C231.880066,52.973885 234.181229,55.104729 233.970505,58.686516 
	C233.780746,61.911572 233.076279,65.743004 231.097061,67.975746 
	C229.995239,69.218719 225.827179,67.743668 222.796478,67.165573 
z"/>
<path fill="#F4F5F8" opacity="1.000000" stroke="none" 
	d="
M315.880371,15.746727 
	C318.944061,15.885731 322.427704,15.829096 321.656647,19.546942 
	C321.296204,21.284904 318.267029,22.469393 316.447418,23.904737 
	C315.963348,23.561487 315.479309,23.218237 314.995239,22.874987 
	C315.143860,20.532959 315.292450,18.190929 315.880371,15.746727 
z"/>
<path fill="#F4F5F8" opacity="1.000000" stroke="none" 
	d="
M256.365509,53.000160 
	C257.390900,54.583916 258.896942,56.911953 258.427460,57.422134 
	C257.064606,58.903130 254.909409,59.655006 252.307739,61.119144 
	C252.307739,57.671673 252.307739,55.453365 252.307739,52.914021 
	C253.482849,52.914021 254.713272,52.914021 256.365509,53.000160 
z"/>
<path fill="#F7F8F9" opacity="1.000000" stroke="none" 
	d="
M156.447510,55.206688 
	C155.412643,59.749279 155.412643,59.749279 150.144363,59.830223 
	C150.046036,58.722553 149.881393,57.597775 149.864288,56.470764 
	C149.846985,55.331711 149.975891,54.190434 150.106583,51.892975 
	C152.531677,53.046276 154.415161,53.942005 156.447510,55.206688 
z"/>
<path fill="#EFF1F5" opacity="1.000000" stroke="none" 
	d="
M69.946518,62.200661 
	C70.717438,59.097294 71.528549,56.417355 72.650459,52.710529 
	C74.009575,56.552563 75.065674,59.537994 76.320358,63.084808 
	C73.831314,62.903751 71.909012,62.763924 69.946518,62.200661 
z"/>
<path fill="#EFF1F5" opacity="1.000000" stroke="none" 
	d="
M242.119751,20.492252 
	C242.604385,19.027637 242.991669,17.938372 243.701233,15.942753 
	C245.005661,19.577818 246.061188,22.519274 247.239182,25.801970 
	C244.863205,25.801970 242.944046,25.801970 240.736237,25.801970 
	C241.203171,24.010576 241.612793,22.439087 242.119751,20.492252 
z"/>
<path fill="#EAEDF2" opacity="1.000000" stroke="none" 
	d="
M179.198608,55.253952 
	C180.050354,57.918617 180.803757,60.225117 181.659103,62.843735 
	C179.207474,62.843735 177.279373,62.843735 174.950012,62.843735 
	C175.977600,59.797020 176.914261,57.019901 177.850922,54.242783 
	C178.267365,54.460457 178.683823,54.678123 179.198608,55.253952 
z"/>
<path fill="#D7DFEA" opacity="1.000000" stroke="none" 
	d="
M8.944066,19.958385 
	C9.424965,19.665014 9.905864,19.371645 10.994469,19.018524 
	C13.066709,19.640436 14.531240,20.322100 15.995772,21.003763 
	C14.902419,22.663033 13.809066,24.322304 12.158860,25.752560 
	C10.734935,25.348654 9.867862,25.173761 9.000790,24.998871 
	C9.000790,24.998871 9.000000,25.000000 9.009743,24.580284 
	C8.994347,22.759842 8.969206,21.359114 8.944066,19.958385 
z"/>
<path fill="#AEB9CF" opacity="1.000000" stroke="none" 
	d="
M16.005951,20.633308 
	C14.531240,20.322100 13.066709,19.640436 11.244316,18.885448 
	C13.672393,15.490870 15.001019,17.322573 16.005951,20.633308 
z"/>
<path fill="#AEB9CF" opacity="1.000000" stroke="none" 
	d="
M8.604075,20.022717 
	C8.969206,21.359114 8.994347,22.759842 9.010307,24.579903 
	C6.905894,23.639355 5.893473,22.117002 8.604075,20.022717 
z"/>
<path fill="#AEB9CF" opacity="1.000000" stroke="none" 
	d="
M9.116781,25.276852 
	C9.867862,25.173761 10.734935,25.348654 11.799854,25.797218 
	C11.076058,25.898872 10.154416,25.726851 9.116781,25.276852 
z"/>
</svg>